<svg xmlns="http://www.w3.org/2000/svg" xmlns:xlink="http://www.w3.org/1999/xlink" width="149" height="24" viewBox="0 0 149 24">
    <defs>
        <path id="iqigx0t1xa" d="M0.027 0.067L106.596 0.067 106.596 23.973 0.027 23.973z"/>
        <path id="58ju33vcuc" d="M0.421 0.067L96.762 0.067 96.762 23.973 0.421 23.973z"/>
    </defs>
    <g fill="none" fill-rule="evenodd">
        <g>
            <g>
                <g transform="translate(-48 -58) translate(48 58)">
                    <mask id="r6eafym4ib" fill="#fff">
                        <use xlink:href="#iqigx0t1xa"/>
                    </mask>
                    <path fill="#429AC1" d="M1.844 13.981L12.908 8.54l7.927-3.901V.612l-19.85 9.77c-1.304.641-1.316 2.495-.02 3.153l.879.446" mask="url(#r6eafym4ib)"/>
                    <path fill="#214C8D" d="M8.56 13.237L4.404 15.282 20.835 23.626 20.835 19.471 8.56 13.237M84.394 12.064c-1.198-.922-2.638-1.36-6.16-1.877-2.134-.299-2.925-.507-3.7-.98-.821-.448-1.292-1.367-1.292-2.522 0-2.892 2.316-3.499 4.26-3.499 2.396 0 3.846.598 5.17 2.13l.249.288 2.79-1.76-.298-.384C83.643 1.177 80.982.067 77.278.067c-4.775 0-7.514 2.477-7.514 6.797 0 1.925.62 3.41 1.89 4.532 1.106 1.01 2.501 1.484 5.743 1.947 2.609.353 3.322.526 4.249 1.032.898.449 1.413 1.446 1.413 2.739 0 2.504-1.877 3.722-5.736 3.722-2.844 0-4.567-.581-6.143-2.073l-.265-.251-2.162 1.872-.145.362C70.31 22.876 73.355 24 77.41 24c4.163 0 9.125-1.18 9.125-6.797 0-2.26-.806-4.185-2.142-5.139M104.454 12.064c-1.198-.922-2.638-1.36-6.16-1.877-2.133-.299-2.924-.507-3.7-.98-.821-.448-1.293-1.367-1.293-2.522 0-2.892 2.317-3.499 4.26-3.499 2.397 0 3.847.598 5.172 2.13l.248.288 2.79-1.76-.297-.384c-1.77-2.283-4.433-3.393-8.137-3.393-4.775 0-7.513 2.477-7.513 6.797 0 1.925.62 3.41 1.89 4.532 1.106 1.01 2.5 1.484 5.743 1.947 2.61.354 3.322.526 4.249 1.032.898.449 1.412 1.447 1.412 2.739 0 2.504-1.876 3.722-5.736 3.722-2.844 0-4.566-.581-6.142-2.073l-.266-.251-2.596 1.872.29.362C90.37 22.876 93.414 24 97.47 24c4.162 0 9.125-1.18 9.125-6.797 0-2.26-.806-4.184-2.142-5.139" mask="url(#r6eafym4ib)"/>
                </g>
                <path fill="#214C8D" d="M147.628 4.65c-1.124-2.998-3.806-4.583-7.754-4.583-2.79 0-4.828.828-6.19 2.523l-.16-2.12h-2.998v23.127h3.568V11.922c0-7.175 2.203-8.646 5.512-8.646 2.235 0 3.729.897 4.564 2.736.451 1.024.635 2.347.635 4.567v13.018h3.567V10.355c0-2.647-.238-4.464-.744-5.706" transform="translate(-48 -58) translate(48 58)"/>
                <g transform="translate(-48 -58) translate(48 58) translate(30.667)">
                    <mask id="zjc1uxog7d" fill="#fff">
                        <use xlink:href="#58ju33vcuc"/>
                    </mask>
                    <path fill="#214C8D" d="M3.988 16.912V.6L.421.591v16.097c0 5.247 1.63 6.932 6.707 6.932h9.547v-3.165H7.263c-2.571 0-3.275-.762-3.275-3.543M36.708 11.071c0-7.507-2.97-11.004-9.348-11.004-6.2 0-9.214 3.6-9.214 11.004v1.97C18.146 20.313 21.44 24 27.942 24c3.716 0 6.133-1.007 7.837-3.264l.273-.36-2.638-1.887-.262.307c-1.207 1.41-2.759 2.04-5.032 2.04-4.162 0-6.373-2.493-6.404-7.204l-.002-3.763c.037-3.09 1.081-6.683 5.735-6.683 2.203 0 3.513.582 4.523 2.013.77 1.055 1.237 2.793 1.258 4.67H24.4l-.014 2.94h12.322v-1.738M96.762 11.071c0-7.507-2.97-11.004-9.348-11.004-6.2 0-9.214 3.6-9.214 11.004v1.97C78.2 20.313 81.496 24 87.996 24c3.716 0 6.133-1.007 7.837-3.264l.273-.36-2.638-1.887-.262.307c-1.207 1.41-2.758 2.04-5.032 2.04-4.162 0-6.373-2.493-6.404-7.204l-.002-3.763c.036-3.09 1.081-6.683 5.736-6.683 2.203 0 3.512.582 4.522 2.013.77 1.055 1.237 2.793 1.258 4.67h-8.83l-.014 2.94h12.322v-1.738" mask="url(#zjc1uxog7d)"/>
                </g>
            </g>
        </g>
    </g>
</svg>
